<svg width="1" height="1" viewBox="0 0 1 1" fill="none" xmlns="http://www.w3.org/2000/svg">
<g id="ArrowsOut">
<g id="Vector">
<path d="M0.0244141 0.00683594V0.0107422C0.0244141 0.0112815 0.0248513 0.0117188 0.0253906 0.0117188C0.02593 0.0117188 0.0263672 0.0112815 0.0263672 0.0107422V0.00585938C0.0263672 0.00532003 0.02593 0.00488281 0.0253906 0.00488281H0.0205078C0.0199685 0.00488281 0.0195312 0.00532003 0.0195312 0.00585938C0.0195312 0.00639872 0.0199685 0.00683594 0.0205078 0.00683594H0.0244141Z" fill="#1C1C1C"/>
<path d="M0.0260808 0.00655028C0.0262639 0.00636713 0.0263672 0.00611838 0.0263672 0.00585938C0.0263672 0.00560037 0.0262643 0.00535198 0.0260812 0.00516884L0.0260727 0.00516051C0.0258904 0.00498281 0.0256452 0.00488281 0.0253906 0.00488281C0.0251316 0.00488281 0.0248832 0.0049857 0.0247001 0.00516884L0.0178645 0.0120044C0.0176814 0.0121876 0.0175781 0.0124363 0.0175781 0.0126953C0.0175781 0.012711 0.0175785 0.0127266 0.0175793 0.0127422C0.0175909 0.0129847 0.0176925 0.0132142 0.0178642 0.0133858C0.0180473 0.013569 0.0182957 0.0136719 0.0185547 0.0136719C0.0188137 0.0136719 0.0190621 0.013569 0.0192452 0.0133858L0.0260808 0.00655028Z" fill="#1C1C1C"/>
<path d="M0.00683594 0.0244141V0.0205078C0.00683594 0.0199685 0.00639872 0.0195312 0.00585938 0.0195312C0.00532003 0.0195312 0.00488281 0.0199685 0.00488281 0.0205078V0.0253906C0.00488281 0.02593 0.00532003 0.0263672 0.00585938 0.0263672H0.0107422C0.0112815 0.0263672 0.0117188 0.02593 0.0117188 0.0253906C0.0117188 0.0248513 0.0112815 0.0244141 0.0107422 0.0244141H0.00683594Z" fill="#1C1C1C"/>
<path d="M0.0133855 0.0192456C0.0135686 0.0190624 0.0136719 0.0188137 0.0136719 0.0185547C0.0136719 0.0182957 0.013569 0.0180473 0.0133858 0.0178642L0.0133774 0.0178558C0.0131951 0.0176781 0.0129499 0.0175781 0.0126953 0.0175781C0.0124363 0.0175781 0.0121879 0.017681 0.0120048 0.0178642L0.00516921 0.0246997C0.00498607 0.0248829 0.00488281 0.0251316 0.00488281 0.0253906C0.00488281 0.0254063 0.00488319 0.0254219 0.00488394 0.0254375C0.0048956 0.02568 0.00499717 0.0259095 0.00516884 0.0260812C0.00535198 0.0262643 0.00560037 0.0263672 0.00585938 0.0263672C0.00611838 0.0263672 0.00636677 0.0262643 0.00654991 0.0260812L0.0133855 0.0192456Z" fill="#1C1C1C"/>
<path d="M0.0244141 0.0244141H0.0205078C0.0199685 0.0244141 0.0195312 0.0248513 0.0195312 0.0253906C0.0195312 0.02593 0.0199685 0.0263672 0.0205078 0.0263672H0.0253906C0.02593 0.0263672 0.0263672 0.02593 0.0263672 0.0253906V0.0205078C0.0263672 0.0199685 0.02593 0.0195312 0.0253906 0.0195312C0.0248513 0.0195312 0.0244141 0.0199685 0.0244141 0.0205078V0.0244141Z" fill="#1C1C1C"/>
<path d="M0.0246996 0.0260807C0.0248827 0.0262638 0.0251316 0.0263672 0.0253906 0.0263672C0.0256496 0.0263672 0.025898 0.0262643 0.0260812 0.0260812C0.0262643 0.025898 0.0263672 0.0256496 0.0263672 0.0253906C0.0263672 0.0251316 0.0262643 0.0248832 0.0260812 0.0247001L0.0192453 0.0178643C0.0190621 0.017681 0.0188137 0.0175781 0.0185547 0.0175781C0.0182957 0.0175781 0.0180473 0.017681 0.0178642 0.0178642C0.017681 0.0180473 0.0175781 0.0182957 0.0175781 0.0185547C0.0175781 0.0188137 0.017681 0.0190621 0.0178642 0.0192452L0.0246996 0.0260807Z" fill="#1C1C1C"/>
<path d="M0.00683594 0.00683594H0.0107422C0.0112815 0.00683594 0.0117188 0.00639872 0.0117188 0.00585938C0.0117188 0.00532003 0.0112815 0.00488281 0.0107422 0.00488281H0.00585938C0.00532003 0.00488281 0.00488281 0.00532003 0.00488281 0.00585938V0.0107422C0.00488281 0.0112815 0.00532003 0.0117188 0.00585938 0.0117188C0.00639872 0.0117188 0.00683594 0.0112815 0.00683594 0.0107422V0.00683594Z" fill="#1C1C1C"/>
<path d="M0.00654991 0.00516884C0.00636677 0.0049857 0.00611838 0.00488281 0.00585938 0.00488281C0.00560037 0.00488281 0.00535198 0.0049857 0.00516884 0.00516884C0.0049857 0.00535198 0.00488281 0.00560037 0.00488281 0.00585938C0.00488281 0.00611838 0.0049857 0.00636677 0.00516884 0.00654991L0.0120043 0.0133853C0.0121874 0.0135685 0.0124363 0.0136719 0.0126953 0.0136719C0.0129543 0.0136719 0.0132027 0.013569 0.0133858 0.0133858C0.013569 0.0132027 0.0136719 0.0129543 0.0136719 0.0126953C0.0136719 0.0124363 0.013569 0.0121879 0.0133858 0.0120048L0.00654991 0.00516884Z" fill="#1C1C1C"/>
</g>
</g>
</svg>
