<svg width="233" height="145" viewBox="0 0 233 145" fill="none" xmlns="http://www.w3.org/2000/svg">
<path d="M199.395 17.4474C199.29 17.4474 199.19 17.4238 199.116 17.3818C199.042 17.3399 199 17.283 199 17.2237C199 17.1643 199.042 17.1075 199.116 17.0655C199.19 17.0236 199.29 17 199.395 17H208C208.104 17 208.205 17.0236 208.279 17.0655C208.353 17.1075 208.395 17.1643 208.395 17.2237C208.395 17.283 208.353 17.3399 208.279 17.3818C208.205 17.4238 208.104 17.4474 208 17.4474H199.395Z" fill="#0081E6"/>
<path d="M203.175 29.0485C203.101 29.1226 203.013 29.1769 202.931 29.1997C202.849 29.2224 202.779 29.2116 202.737 29.1696C202.695 29.1277 202.684 29.058 202.707 28.976C202.73 28.8939 202.784 28.8062 202.858 28.7321L208.943 22.6477C209.017 22.5736 209.105 22.5193 209.187 22.4965C209.269 22.4738 209.338 22.4846 209.38 22.5266C209.422 22.5685 209.433 22.6382 209.41 22.7202C209.388 22.8023 209.333 22.89 209.259 22.9641L203.175 29.0485Z" fill="#0081E6"/>
<path d="M203.306 5.51682C203.232 5.44273 203.177 5.35502 203.154 5.27297C203.132 5.19092 203.143 5.12125 203.184 5.0793C203.226 5.03735 203.296 5.02656 203.378 5.04928C203.46 5.07201 203.548 5.1264 203.622 5.20048L209.706 11.2849C209.78 11.359 209.835 11.4467 209.858 11.5287C209.88 11.6108 209.87 11.6804 209.828 11.7224C209.786 11.7643 209.716 11.7751 209.634 11.7524C209.552 11.7297 209.464 11.6753 209.39 11.6012L203.306 5.51682Z" fill="#0081E6"/>
<path d="M224 17.4475C223.895 17.4475 223.795 17.4003 223.721 17.3164C223.647 17.2325 223.605 17.1188 223.605 17.0001C223.605 16.8815 223.647 16.7677 223.721 16.6838C223.795 16.5999 223.895 16.5527 224 16.5527H232.605C232.71 16.5527 232.81 16.5999 232.884 16.6838C232.958 16.7677 233 16.8815 233 17.0001C233 17.1188 232.958 17.2325 232.884 17.3164C232.81 17.4003 232.71 17.4475 232.605 17.4475H224Z" fill="#0081E6"/>
<path d="M215.553 9.00071V0.395088C215.552 0.343606 215.557 0.292425 215.568 0.244537C215.579 0.196649 215.595 0.153009 215.615 0.116208C215.635 0.0794069 215.66 0.0501622 215.687 0.0302064C215.714 0.0102506 215.742 -1.21584e-05 215.772 1.08096e-08C215.83 0.0039465 215.886 0.0463101 215.929 0.118902C215.971 0.191493 215.996 0.289145 216 0.392972V8.99859C216 9.05047 215.994 9.10189 215.983 9.14988C215.972 9.19786 215.956 9.24149 215.935 9.27827C215.893 9.35256 215.836 9.39446 215.777 9.39474C215.748 9.39487 215.718 9.38477 215.691 9.36504C215.664 9.34532 215.639 9.31634 215.619 9.27975C215.577 9.20585 215.553 9.10549 215.553 9.00071Z" fill="#0081E6"/>
<path d="M221.213 11.1412L227.588 4.76634C227.626 4.72776 227.667 4.69352 227.71 4.66563C227.753 4.63773 227.797 4.61673 227.839 4.60388C227.88 4.59104 227.919 4.58659 227.953 4.59081C227.987 4.59503 228.015 4.60783 228.035 4.62846C228.074 4.673 228.082 4.74393 228.058 4.82754C228.034 4.91115 227.98 5.00149 227.906 5.08107L221.531 11.4559C221.493 11.4944 221.45 11.5285 221.407 11.5561C221.364 11.5838 221.32 11.6045 221.278 11.6171C221.193 11.6425 221.122 11.6334 221.08 11.5917C221.059 11.571 221.046 11.5429 221.041 11.5091C221.037 11.4753 221.041 11.4364 221.053 11.3945C221.078 11.31 221.136 11.2189 221.213 11.1412Z" fill="#0081E6"/>
<path d="M215.553 33.6296V24.9756C215.561 24.875 215.612 24.7809 215.695 24.7122C215.778 24.6434 215.887 24.6052 216 24.6052C216.113 24.6052 216.222 24.6434 216.305 24.7122C216.388 24.7809 216.439 24.875 216.447 24.9756V33.6296C216.439 33.7302 216.388 33.8244 216.305 33.8931C216.222 33.9618 216.113 34 216 34C215.887 34 215.778 33.9618 215.695 33.8931C215.612 33.8244 215.561 33.7302 215.553 33.6296Z" fill="#0081E6"/>
<path d="M227.668 29.5219C227.421 29.5219 227.886 29.9226 221.042 23.0734C221.004 23.0351 220.973 22.9897 220.953 22.9396C220.932 22.8896 220.921 22.836 220.921 22.7818C220.921 22.7276 220.931 22.6739 220.952 22.6238C220.973 22.5737 221.003 22.5282 221.041 22.4898C221.079 22.4514 221.125 22.4209 221.174 22.4001C221.224 22.3793 221.278 22.3685 221.332 22.3684C221.386 22.3683 221.44 22.3789 221.49 22.3995C221.54 22.4202 221.585 22.4505 221.623 22.4887L227.959 28.819C228.016 28.8766 228.055 28.95 228.071 29.0299C228.087 29.1097 228.079 29.1926 228.048 29.2678C228.017 29.3431 227.964 29.4074 227.896 29.4526C227.829 29.4978 227.749 29.522 227.668 29.5219Z" fill="#0081E6"/>
<rect x="26" y="81" width="194" height="30" rx="8" fill="#F0F2F5"/>
<rect x="58" y="87" width="154" height="18" rx="4" fill="#E7EBF0"/>
<path d="M48 93.3333C48.1769 93.3333 48.3464 93.263 48.4714 93.138C48.5965 93.013 48.6667 92.8434 48.6667 92.6666V89.9999C48.6657 89.9128 48.6475 89.8267 48.6134 89.7466C48.5457 89.5837 48.4163 89.4542 48.2534 89.3866C48.1732 89.3524 48.0872 89.3343 48 89.3333H45.3334C45.1566 89.3333 44.987 89.4035 44.862 89.5285C44.7369 89.6535 44.6667 89.8231 44.6667 89.9999C44.6667 90.1767 44.7369 90.3463 44.862 90.4713C44.987 90.5963 45.1566 90.6666 45.3334 90.6666H46.3934L42 95.0599L37.6067 90.6666H38.6667C38.8435 90.6666 39.0131 90.5963 39.1381 90.4713C39.2631 90.3463 39.3334 90.1767 39.3334 89.9999C39.3334 89.8231 39.2631 89.6535 39.1381 89.5285C39.0131 89.4035 38.8435 89.3333 38.6667 89.3333H36C35.9129 89.3343 35.8269 89.3524 35.7467 89.3866C35.5838 89.4542 35.4544 89.5837 35.3867 89.7466C35.3525 89.8267 35.3344 89.9128 35.3334 89.9999V92.6666C35.3334 92.8434 35.4036 93.013 35.5286 93.138C35.6537 93.263 35.8232 93.3333 36 93.3333C36.1769 93.3333 36.3464 93.263 36.4714 93.138C36.5965 93.013 36.6667 92.8434 36.6667 92.6666V91.6066L41.06 95.9999L36.6667 100.393V99.3333C36.6667 99.1564 36.5965 98.9869 36.4714 98.8618C36.3464 98.7368 36.1769 98.6666 36 98.6666C35.8232 98.6666 35.6537 98.7368 35.5286 98.8618C35.4036 98.9869 35.3334 99.1564 35.3334 99.3333V102C35.3344 102.087 35.3525 102.173 35.3867 102.253C35.4544 102.416 35.5838 102.546 35.7467 102.613C35.8269 102.647 35.9129 102.666 36 102.667H38.6667C38.8435 102.667 39.0131 102.596 39.1381 102.471C39.2631 102.346 39.3334 102.177 39.3334 102C39.3334 101.823 39.2631 101.654 39.1381 101.529C39.0131 101.403 38.8435 101.333 38.6667 101.333H37.6067L42 96.9399L46.3934 101.333H45.3334C45.1566 101.333 44.987 101.403 44.862 101.529C44.7369 101.654 44.6667 101.823 44.6667 102C44.6667 102.177 44.7369 102.346 44.862 102.471C44.987 102.596 45.1566 102.667 45.3334 102.667H48C48.0872 102.666 48.1732 102.647 48.2534 102.613C48.4163 102.546 48.5457 102.416 48.6134 102.253C48.6475 102.173 48.6657 102.087 48.6667 102V99.3333C48.6667 99.1564 48.5965 98.9869 48.4714 98.8618C48.3464 98.7368 48.1769 98.6666 48 98.6666C47.8232 98.6666 47.6537 98.7368 47.5286 98.8618C47.4036 98.9869 47.3334 99.1564 47.3334 99.3333V100.393L42.94 95.9999L47.3334 91.6066V92.6666C47.3334 92.8434 47.4036 93.013 47.5286 93.138C47.6537 93.263 47.8232 93.3333 48 93.3333Z" fill="#9BABC5"/>
<rect x="26" y="115" width="194" height="30" rx="8" fill="#F0F2F5"/>
<rect x="58" y="121" width="154" height="19" rx="4" fill="#E7EBF0"/>
<path d="M36.4733 132.86C36.4099 132.799 36.3351 132.752 36.2533 132.72C36.091 132.653 35.9089 132.653 35.7466 132.72C35.6648 132.752 35.59 132.799 35.5266 132.86C35.4659 132.923 35.4183 132.998 35.3866 133.08C35.3356 133.201 35.3216 133.335 35.3465 133.465C35.3714 133.594 35.4341 133.713 35.5266 133.807C35.5914 133.866 35.6658 133.913 35.7466 133.947C35.8264 133.982 35.9127 134 36 134C36.0872 134 36.1735 133.982 36.2533 133.947C36.3341 133.913 36.4085 133.866 36.4733 133.807C36.5658 133.713 36.6285 133.594 36.6534 133.465C36.6783 133.335 36.6643 133.201 36.6133 133.08C36.5816 132.998 36.534 132.923 36.4733 132.86ZM38.6666 127.333H48C48.1768 127.333 48.3463 127.263 48.4714 127.138C48.5964 127.013 48.6666 126.843 48.6666 126.667C48.6666 126.49 48.5964 126.32 48.4714 126.195C48.3463 126.07 48.1768 126 48 126H38.6666C38.4898 126 38.3202 126.07 38.1952 126.195C38.0702 126.32 38 126.49 38 126.667C38 126.843 38.0702 127.013 38.1952 127.138C38.3202 127.263 38.4898 127.333 38.6666 127.333ZM36.4733 129.527C36.3795 129.434 36.2605 129.371 36.1312 129.347C36.0018 129.322 35.868 129.336 35.7466 129.387C35.6658 129.42 35.5914 129.468 35.5266 129.527C35.4659 129.59 35.4183 129.665 35.3866 129.747C35.3513 129.826 35.3331 129.913 35.3331 130C35.3331 130.087 35.3513 130.174 35.3866 130.253C35.4204 130.334 35.4677 130.409 35.5266 130.473C35.5914 130.532 35.6658 130.58 35.7466 130.613C35.8264 130.649 35.9127 130.667 36 130.667C36.0872 130.667 36.1735 130.649 36.2533 130.613C36.3341 130.58 36.4085 130.532 36.4733 130.473C36.5322 130.409 36.5795 130.334 36.6133 130.253C36.6486 130.174 36.6668 130.087 36.6668 130C36.6668 129.913 36.6486 129.826 36.6133 129.747C36.5816 129.665 36.534 129.59 36.4733 129.527ZM48 129.333H38.6666C38.4898 129.333 38.3202 129.404 38.1952 129.529C38.0702 129.654 38 129.823 38 130C38 130.177 38.0702 130.346 38.1952 130.471C38.3202 130.596 38.4898 130.667 38.6666 130.667H48C48.1768 130.667 48.3463 130.596 48.4714 130.471C48.5964 130.346 48.6666 130.177 48.6666 130C48.6666 129.823 48.5964 129.654 48.4714 129.529C48.3463 129.404 48.1768 129.333 48 129.333ZM36.4733 126.193C36.4099 126.133 36.3351 126.085 36.2533 126.053C36.1319 126.002 35.9981 125.988 35.8687 126.013C35.7394 126.038 35.6204 126.101 35.5266 126.193C35.4677 126.258 35.4204 126.333 35.3866 126.413C35.3513 126.493 35.3331 126.579 35.3331 126.667C35.3331 126.754 35.3513 126.84 35.3866 126.92C35.4204 127.001 35.4677 127.075 35.5266 127.14C35.5914 127.199 35.6658 127.246 35.7466 127.28C35.868 127.331 36.0018 127.345 36.1312 127.32C36.2605 127.295 36.3795 127.233 36.4733 127.14C36.5322 127.075 36.5795 127.001 36.6133 126.92C36.6486 126.84 36.6668 126.754 36.6668 126.667C36.6668 126.579 36.6486 126.493 36.6133 126.413C36.5795 126.333 36.5322 126.258 36.4733 126.193ZM48 132.667H38.6666C38.4898 132.667 38.3202 132.737 38.1952 132.862C38.0702 132.987 38 133.157 38 133.333C38 133.51 38.0702 133.68 38.1952 133.805C38.3202 133.93 38.4898 134 38.6666 134H48C48.1768 134 48.3463 133.93 48.4714 133.805C48.5964 133.68 48.6666 133.51 48.6666 133.333C48.6666 133.157 48.5964 132.987 48.4714 132.862C48.3463 132.737 48.1768 132.667 48 132.667Z" fill="#9BABC5"/>
<rect x="26" y="47" width="194" height="30" rx="8" fill="#F0F2F5"/>
<rect x="58" y="53" width="154" height="18" rx="4" fill="#E7EBF0"/>
<path d="M41.5267 64.1933C41.498 64.2249 41.4713 64.2583 41.4467 64.2933C41.4215 64.3304 41.4013 64.3708 41.3867 64.4133C41.3675 64.451 41.354 64.4915 41.3467 64.5333C41.3434 64.5776 41.3434 64.6222 41.3467 64.6666C41.3445 64.754 41.3627 64.8408 41.4 64.9199C41.43 65.0026 41.4778 65.0778 41.54 65.14C41.6022 65.2022 41.6773 65.25 41.76 65.2799C41.8398 65.3152 41.9261 65.3334 42.0134 65.3334C42.1006 65.3334 42.1869 65.3152 42.2667 65.2799C42.3494 65.25 42.4246 65.2022 42.4868 65.14C42.549 65.0778 42.5968 65.0026 42.6267 64.9199C42.6563 64.8389 42.6699 64.7528 42.6667 64.6666C42.6672 64.5788 42.6504 64.4919 42.6172 64.4106C42.584 64.3294 42.5352 64.2555 42.4734 64.1933C42.4114 64.1308 42.3377 64.0812 42.2564 64.0473C42.1752 64.0135 42.0881 63.9961 42 63.9961C41.912 63.9961 41.8249 64.0135 41.7437 64.0473C41.6624 64.0812 41.5887 64.1308 41.5267 64.1933ZM42 55.3333C40.6815 55.3333 39.3926 55.7242 38.2962 56.4568C37.1999 57.1893 36.3454 58.2305 35.8408 59.4487C35.3363 60.6669 35.2042 62.0073 35.4615 63.3005C35.7187 64.5937 36.3536 65.7816 37.286 66.714C38.2183 67.6463 39.4062 68.2813 40.6994 68.5385C41.9926 68.7957 43.3331 68.6637 44.5513 68.1591C45.7694 67.6545 46.8106 66.8 47.5432 65.7037C48.2757 64.6074 48.6667 63.3185 48.6667 61.9999C48.6667 61.1244 48.4943 60.2575 48.1592 59.4487C47.8242 58.6399 47.3331 57.9049 46.7141 57.2859C46.095 56.6668 45.3601 56.1758 44.5513 55.8407C43.7424 55.5057 42.8755 55.3333 42 55.3333ZM42 67.3333C40.9452 67.3333 39.9141 67.0205 39.037 66.4344C38.1599 65.8484 37.4764 65.0154 37.0727 64.0409C36.669 63.0664 36.5634 61.994 36.7692 60.9594C36.975 59.9249 37.4829 58.9746 38.2288 58.2287C38.9747 57.4828 39.925 56.9749 40.9596 56.7691C41.9941 56.5633 43.0665 56.6689 44.041 57.0726C45.0156 57.4762 45.8485 58.1598 46.4345 59.0369C47.0206 59.9139 47.3334 60.9451 47.3334 61.9999C47.3334 63.4144 46.7715 64.771 45.7713 65.7712C44.7711 66.7713 43.4145 67.3333 42 67.3333ZM42 58.6666C41.6488 58.6664 41.3036 58.7587 40.9993 58.9342C40.695 59.1098 40.4424 59.3624 40.2667 59.6666C40.2185 59.7425 40.1861 59.8273 40.1715 59.916C40.1569 60.0048 40.1604 60.0955 40.1818 60.1828C40.2032 60.2702 40.242 60.3523 40.296 60.4242C40.3499 60.4961 40.4178 60.5564 40.4957 60.6014C40.5735 60.6464 40.6597 60.6752 40.7489 60.686C40.8382 60.6969 40.9287 60.6896 41.0151 60.6645C41.1014 60.6395 41.1818 60.5972 41.2514 60.5403C41.321 60.4833 41.3784 60.4129 41.42 60.3333C41.4788 60.2315 41.5634 60.1471 41.6652 60.0886C41.7671 60.03 41.8826 59.9995 42 59.9999C42.1769 59.9999 42.3464 60.0702 42.4714 60.1952C42.5965 60.3202 42.6667 60.4898 42.6667 60.6666C42.6667 60.8434 42.5965 61.013 42.4714 61.138C42.3464 61.263 42.1769 61.3333 42 61.3333C41.8232 61.3333 41.6537 61.4035 41.5286 61.5285C41.4036 61.6535 41.3334 61.8231 41.3334 61.9999V62.6666C41.3334 62.8434 41.4036 63.013 41.5286 63.138C41.6537 63.263 41.8232 63.3333 42 63.3333C42.1769 63.3333 42.3464 63.263 42.4714 63.138C42.5965 63.013 42.6667 62.8434 42.6667 62.6666V62.5466C43.1076 62.3866 43.4783 62.0767 43.7139 61.6712C43.9495 61.2656 44.0351 60.7901 43.9556 60.3278C43.8762 59.8656 43.6368 59.4459 43.2794 59.1423C42.9219 58.8386 42.4691 58.6702 42 58.6666Z" fill="#9BABC5"/>
<rect y="13" width="220" height="30" rx="8" fill="#F0F2F5"/>
<rect x="32" y="19" width="181" height="18" rx="4" fill="#E7EBF0"/>
<path d="M20.6667 23.6668H16.48L16.2667 23.0001C16.1284 22.6089 15.8719 22.2704 15.5326 22.0315C15.1934 21.7926 14.7883 21.6652 14.3734 21.6668H11.3334C10.8029 21.6668 10.2942 21.8775 9.91916 22.2525C9.54409 22.6276 9.33337 23.1363 9.33337 23.6668V32.3334C9.33337 32.8639 9.54409 33.3726 9.91916 33.7476C10.2942 34.1227 10.8029 34.3334 11.3334 34.3334H20.6667C21.1971 34.3334 21.7058 34.1227 22.0809 33.7476C22.456 33.3726 22.6667 32.8639 22.6667 32.3334V25.6668C22.6667 25.1363 22.456 24.6276 22.0809 24.2526C21.7058 23.8775 21.1971 23.6668 20.6667 23.6668ZM21.3334 32.3334C21.3334 32.5102 21.2631 32.6798 21.1381 32.8048C21.0131 32.9299 20.8435 33.0001 20.6667 33.0001H11.3334C11.1566 33.0001 10.987 32.9299 10.862 32.8048C10.7369 32.6798 10.6667 32.5102 10.6667 32.3334V23.6668C10.6667 23.49 10.7369 23.3204 10.862 23.1954C10.987 23.0703 11.1566 23.0001 11.3334 23.0001H14.3734C14.5131 22.9997 14.6495 23.0433 14.7631 23.1247C14.8768 23.206 14.962 23.321 15.0067 23.4534L15.3667 24.5468C15.4114 24.6792 15.4966 24.7942 15.6103 24.8755C15.7239 24.9569 15.8603 25.0005 16 25.0001H20.6667C20.8435 25.0001 21.0131 25.0703 21.1381 25.1954C21.2631 25.3204 21.3334 25.49 21.3334 25.6668V32.3334Z" fill="#9BABC5"/>
</svg>